<svg width="421" height="494" viewBox="0 0 421 494" fill="none" xmlns="http://www.w3.org/2000/svg">
<path d="M302.131 279.285C302.327 291.508 301.318 303.721 299.117 315.746C298.818 317.425 298.45 319.058 298.059 320.715C297.829 321.704 297.599 322.693 297.346 323.659C297.093 324.625 296.771 325.959 296.426 327.156C294.115 335.449 290.849 343.446 286.694 350.987C280.144 362.15 272.433 372.59 263.689 382.134L259.847 386.574C259.548 386.965 259.226 387.287 258.881 387.678C246.067 402.423 233.253 417.122 219.38 430.901C213.606 436.652 207.049 442.403 198.376 443.116C199.826 442.61 199.78 441.322 200.677 440.678C200.071 441.12 199.334 441.347 198.584 441.322C197.133 441.222 195.775 440.572 194.788 439.505C194.698 439.415 194.621 439.315 194.558 439.206C194.117 438.714 193.788 438.133 193.591 437.503C193.581 437.435 193.581 437.365 193.591 437.296C193.115 434.454 193.567 431.534 194.88 428.969C202.149 410.221 210.5 391.91 218.828 373.761C221.704 367.412 224.603 361.109 227.455 354.76C230.468 348.587 233.014 342.197 235.07 335.644C237.67 326.741 238.567 317.241 241.42 308.477C241.937 306.857 242.544 305.267 243.237 303.715C243.984 301.927 244.877 300.204 245.906 298.562C248.95 294.061 252.509 289.931 256.511 286.255L258.26 284.553C259.502 283.311 260.721 282.092 261.895 280.826C262.755 279.958 263.569 279.044 264.333 278.089C265.481 276.799 266.549 275.439 267.531 274.017C275.33 262.677 276.733 248.024 285.452 237.212C286.064 236.385 286.849 235.702 287.753 235.211C287.863 235.076 288.018 234.986 288.19 234.958C288.642 234.769 289.126 234.672 289.616 234.672C290.106 234.672 290.591 234.769 291.043 234.958C292.411 235.524 293.585 236.475 294.424 237.695C295.009 238.464 295.503 239.298 295.897 240.179C295.968 240.321 296.029 240.467 296.081 240.616C300.682 250.738 301.579 261.964 301.878 272.936C301.878 273.879 301.878 274.823 301.878 275.766C301.878 276.709 302.131 278.112 302.131 279.285Z" fill="#F5BBC3"/>
<path d="M289.224 281.54C288.557 283.38 287.89 285.198 287.177 287.038C286.716 288.326 286.233 289.614 285.727 290.902C279.7 306.849 272.788 322.446 265.022 337.623C263.435 340.705 261.733 343.649 259.938 346.525C258.144 349.4 256.372 352.069 254.463 354.714C245.951 366.607 236.058 377.281 226.672 388.874C214.091 404.355 203.352 421.246 194.672 439.206C194.231 438.714 193.902 438.134 193.705 437.504C193.695 437.435 193.695 437.365 193.705 437.297C200.806 422.671 209.279 408.753 219.011 395.729C231.503 379.144 246.917 364.882 257.73 347.054C259.693 343.833 261.556 340.552 263.32 337.208C263.803 336.311 264.286 335.414 264.746 334.494C272.101 319.633 278.697 304.408 284.508 288.878C288.28 279.848 291.356 270.543 293.71 261.044C295.403 253.376 295.676 245.462 294.515 237.695C295.1 238.464 295.594 239.298 295.988 240.18C296.059 240.321 296.12 240.467 296.172 240.617C297.138 254.235 294.538 266.841 289.224 281.54Z" fill="#FFD1D5"/>
<path d="M264.839 334.494C264.839 335.254 264.839 336.013 264.954 336.795C265.069 337.577 263.827 337.876 263.413 337.232C263.301 337.112 263.236 336.958 263.228 336.795C262.469 328.03 265.115 319.266 263.597 310.548C262.4 303.808 259.341 297.436 257.661 290.811C257.27 289.27 256.925 287.728 256.649 286.21L258.397 284.508C259.097 289.061 260.151 293.553 261.549 297.942C263.605 303.119 265.026 308.526 265.782 314.044C266.311 320.784 264.678 327.57 264.839 334.494Z" fill="#FFD1D5"/>
<path d="M297.345 323.66C297.069 324.833 296.77 325.96 296.425 327.156C295.758 327.892 295.068 328.605 294.355 329.319C290.626 333.228 286.098 336.288 281.08 338.29C277.745 339.532 274.018 339.693 270.728 341.004C262.952 344.11 260.652 349.171 255.314 354.507C255.213 354.628 255.076 354.714 254.923 354.751C254.77 354.789 254.608 354.776 254.463 354.714C254.324 354.669 254.198 354.589 254.098 354.482C253.997 354.375 253.925 354.244 253.889 354.102C253.852 353.96 253.852 353.811 253.888 353.669C253.924 353.526 253.995 353.396 254.095 353.288C256.234 351.149 258.006 348.687 259.938 346.525C261.865 344.076 264.268 342.042 267.001 340.544C276.341 335.806 284.991 336.22 293.135 328.099C294.585 326.65 295.896 325.178 297.345 323.66Z" fill="#FFD1D5"/>
<path d="M302.131 279.286C301.544 279.949 300.897 280.557 300.199 281.103C295.597 284.806 289.961 286.394 285.728 290.902C284.969 291.707 283.773 290.488 284.509 289.683C285.245 288.878 286.441 287.682 287.27 286.946C289.454 285.155 291.83 283.612 294.355 282.345C297.351 280.67 300.004 278.446 302.177 275.789C302.131 276.939 302.131 278.112 302.131 279.286Z" fill="#FFD1D5"/>
<path d="M326.263 393.36C321.148 401.712 315.214 409.533 308.549 416.709C307.629 417.721 306.685 418.664 305.696 419.63L303.948 421.309L301.831 423.288C296.716 427.902 291.089 431.915 285.06 435.249C275.848 439.922 266.171 443.615 256.188 446.268L251.587 447.625C251.219 447.763 250.874 447.832 250.46 447.947C235.461 452.41 220.553 456.85 205.162 460.208C198.79 461.611 191.934 462.509 185.7 459.449C186.896 459.725 187.425 458.828 188.299 458.759C187.695 458.811 187.093 458.648 186.597 458.299C185.668 457.605 185.036 456.586 184.826 455.446C184.813 455.347 184.813 455.247 184.826 455.147C184.71 454.632 184.71 454.098 184.826 453.583C184.812 453.53 184.812 453.475 184.826 453.422C185.732 451.295 187.296 449.513 189.289 448.338C202.264 438.792 215.791 429.936 229.272 421.217L243.282 412.016C248.006 409.194 252.519 406.034 256.787 402.561C262.354 397.662 267.07 391.589 272.752 386.919C273.791 386.041 274.882 385.226 276.019 384.481C277.3 383.612 278.646 382.843 280.045 382.18C284.045 380.455 288.228 379.189 292.514 378.408L294.424 378.017C295.804 377.718 297.161 377.419 298.496 377.051C299.453 376.843 300.397 376.582 301.325 376.268C302.652 375.877 303.958 375.417 305.236 374.888C315.382 370.564 322.697 361.293 333.142 357.728C333.917 357.426 334.75 357.301 335.58 357.36C335.642 357.331 335.708 357.316 335.776 357.316C335.843 357.316 335.91 357.331 335.971 357.36C336.358 357.433 336.725 357.583 337.053 357.8C337.381 358.018 337.662 358.298 337.881 358.625C338.556 359.602 338.939 360.751 338.985 361.937C339.067 362.702 339.067 363.473 338.985 364.238C338.985 364.376 338.985 364.514 338.985 364.606C337.72 373.416 333.533 381.421 329.001 388.966C328.61 389.61 328.242 390.278 327.851 390.899C327.459 391.52 326.769 392.44 326.263 393.36Z" fill="#F5BBC3"/>
<path d="M316.601 389.219C315.359 390.185 314.117 391.129 312.851 392.049C311.977 392.739 311.103 393.383 310.206 394.05C299.267 402.239 287.885 409.819 276.112 416.755C273.811 418.158 271.303 419.4 268.842 420.573C266.38 421.746 264.057 422.873 261.618 423.771C250.76 428.141 239.487 431.132 228.145 434.927C212.988 439.994 198.473 446.811 184.895 455.239C184.78 454.724 184.78 454.19 184.895 453.675C184.881 453.622 184.881 453.567 184.895 453.514C196.021 446.685 207.767 440.924 219.978 436.307C235.553 430.465 252.186 427.428 267.093 420.021C269.808 418.687 272.477 417.261 275.099 415.765C275.812 415.374 276.526 414.983 277.239 414.546C288.605 407.653 299.615 400.19 310.229 392.187C316.653 387.7 322.721 382.724 328.38 377.304C332.815 372.843 336.401 367.613 338.962 361.868C339.044 362.633 339.044 363.404 338.962 364.169C338.962 364.307 338.962 364.445 338.962 364.537C333.671 374.152 326.47 381.582 316.601 389.219Z" fill="#FFD1D5"/>
<path d="M277.308 414.546C276.986 415.052 276.687 415.605 276.411 416.134C276.135 416.663 275.191 416.387 275.168 415.766C275.126 415.647 275.126 415.517 275.168 415.398C278.435 409.141 283.979 404.356 286.671 397.8C288.742 392.739 289.409 387.103 291.134 381.904C291.525 380.685 291.962 379.604 292.445 378.316L294.355 377.925C292.869 381.305 291.654 384.797 290.72 388.368C289.889 392.732 288.537 396.979 286.694 401.02C284.209 405.92 280.184 409.808 277.308 414.546Z" fill="#FFD1D5"/>
<path d="M303.948 421.194L301.832 423.172L299.531 423.748C295.326 424.781 290.948 424.899 286.694 424.093C283.887 423.494 281.311 422.022 278.527 421.493C271.925 420.251 268.198 422.666 262.285 424.001C262.164 424.034 262.035 424.031 261.916 423.989C261.797 423.948 261.693 423.872 261.618 423.771C261.539 423.68 261.486 423.572 261.462 423.454C261.438 423.337 261.445 423.216 261.482 423.102C261.519 422.989 261.585 422.887 261.673 422.806C261.762 422.726 261.87 422.67 261.986 422.643C264.287 422.114 266.587 421.263 268.888 420.573C271.253 419.76 273.753 419.417 276.25 419.561C284.601 420.389 290.26 424.369 299.255 422.39C300.796 422.022 302.384 421.631 303.948 421.194Z" fill="#FFD1D5"/>
<path d="M326.264 393.36C325.579 393.552 324.878 393.683 324.17 393.751C319.431 394.257 314.968 392.923 310.183 394.165C310.006 394.22 309.815 394.203 309.651 394.116C309.487 394.03 309.364 393.882 309.309 393.705C309.254 393.528 309.271 393.337 309.358 393.173C309.444 393.009 309.592 392.886 309.769 392.831C310.942 392.532 312.069 392.302 312.829 392.164C315.117 391.863 317.432 391.817 319.73 392.026C322.481 392.178 325.236 391.812 327.851 390.945C327.276 391.658 326.77 392.44 326.264 393.36Z" fill="#FFD1D5"/>
<path d="M210.5 494C326.756 494 421 488.037 421 480.681C421 473.325 326.756 467.362 210.5 467.362C94.2441 467.362 0 473.325 0 480.681C0 488.037 94.2441 494 210.5 494Z" fill="#F5BBC3"/>
<path d="M310.527 202.592C310.168 199.494 309.623 196.422 308.894 193.39C308.497 190.965 307.411 188.705 305.765 186.88C303.767 185.126 301.222 184.118 298.564 184.028C300.287 183.412 301.857 182.431 303.166 181.152C305.115 178.986 306.373 176.286 306.777 173.4C307.364 170.853 307.573 168.233 307.399 165.625C307.399 165.05 307.767 173.883 313.081 178.323C315.2 179.966 317.748 180.964 320.42 181.198C317.753 181.884 315.399 183.458 313.748 185.661C312.665 187.285 312.031 189.165 311.908 191.113C311.01 197.692 310.803 202.592 310.527 202.592Z" fill="white"/>
<path d="M351.408 265.645C351.222 263.947 350.922 262.264 350.511 260.607C350.29 259.264 349.692 258.011 348.786 256.995C347.68 256.029 346.273 255.477 344.806 255.431C345.751 255.085 346.613 254.544 347.336 253.844C348.406 252.634 349.102 251.14 349.338 249.542C349.669 248.11 349.801 246.639 349.729 245.171C349.933 247.767 351.04 250.209 352.858 252.072C354.033 252.983 355.447 253.535 356.93 253.66C355.454 254.055 354.151 254.929 353.226 256.144C352.633 257.044 352.284 258.082 352.213 259.158C351.684 262.953 351.569 265.645 351.408 265.645Z" fill="white"/>
<path d="M392.381 228.654C391.898 228.654 392.036 219.959 388.907 208.986C387.067 202.522 385.847 198.451 382.121 194.885C377.81 191.089 372.31 188.917 366.569 188.743C370.281 187.41 373.657 185.282 376.461 182.509C381.43 177.517 382.788 171.905 384.283 165.74C385.623 160.147 386.135 154.389 385.801 148.648C385.801 147.406 386.584 166.545 398.063 176.091C402.64 179.657 408.155 181.815 413.937 182.302C408.181 183.813 403.101 187.216 399.513 191.964C397.718 194.54 396.499 197.139 395.556 203.741C393.462 218.073 392.979 228.631 392.381 228.654Z" fill="white"/>
<path d="M124.275 488.663C92.1134 488.656 60.0189 485.722 28.3886 479.899C25.4312 479.366 22.7546 477.812 20.825 475.509C18.8955 473.205 17.8353 470.298 17.8291 467.293V248.139C17.8357 245.925 18.4128 243.75 19.5049 241.824C20.5969 239.898 22.167 238.286 24.0636 237.143L39.2932 227.942C40.9092 226.975 42.2357 225.591 43.1341 223.936C44.0326 222.281 44.4699 220.415 44.4004 218.533L44.1474 213.426C44.0591 211.68 44.33 209.934 44.9434 208.296C45.5567 206.658 46.4995 205.163 47.7134 203.904C48.9273 202.645 50.3865 201.649 52.0009 200.976C53.6153 200.303 55.3506 199.968 57.0994 199.992L195.868 201.695C197.607 201.716 199.322 202.091 200.911 202.797C202.499 203.504 203.927 204.527 205.107 205.803C206.287 207.08 207.194 208.584 207.773 210.223C208.352 211.862 208.591 213.601 208.475 215.336L207.9 223.87C207.744 226.093 208.299 228.308 209.486 230.194C210.674 232.08 212.431 233.539 214.503 234.36L222.532 237.534C224.926 238.472 226.981 240.111 228.426 242.238C229.871 244.365 230.64 246.879 230.63 249.45V467.293C230.62 470.293 229.561 473.196 227.637 475.498C225.713 477.8 223.044 479.357 220.093 479.899C190.404 485.36 160.304 488.285 130.119 488.64L124.275 488.663ZM56.9384 202.247C55.514 202.248 54.1047 202.539 52.7961 203.101C51.4875 203.664 50.3068 204.486 49.3258 205.519C48.3447 206.551 47.5837 207.773 47.089 209.108C46.5943 210.444 46.3762 211.866 46.4479 213.288L46.7009 218.418C46.7934 220.719 46.263 223.002 45.1657 225.026C44.0684 227.051 42.4449 228.742 40.4665 229.92L25.2598 239.121C23.6978 240.052 22.404 241.373 21.5048 242.953C20.6056 244.534 20.1318 246.32 20.1296 248.139V467.293C20.1393 469.763 21.0147 472.152 22.6036 474.043C24.1925 475.934 26.3942 477.209 28.8257 477.645C62.2078 483.8 96.107 486.712 130.05 486.34C160.103 485.987 190.073 483.078 219.633 477.645C222.054 477.195 224.243 475.915 225.822 474.026C227.4 472.136 228.271 469.755 228.283 467.293V249.45C228.293 247.339 227.662 245.276 226.475 243.53C225.289 241.785 223.601 240.44 221.635 239.673L213.629 236.499C211.1 235.5 208.954 233.722 207.502 231.423C206.051 229.123 205.368 226.422 205.554 223.709L206.152 215.198C206.252 213.771 206.059 212.339 205.584 210.99C205.109 209.641 204.363 208.403 203.391 207.354C202.429 206.295 201.257 205.448 199.95 204.866C198.644 204.284 197.23 203.979 195.799 203.972L57.0304 202.27L56.9384 202.247Z" fill="white"/>
<path d="M24.6386 443.323C24.3335 443.323 24.0409 443.202 23.8252 442.986C23.6095 442.771 23.4883 442.478 23.4883 442.173V256.029C23.4935 253.98 24.0278 251.968 25.0395 250.187C26.0512 248.405 27.5059 246.915 29.2627 245.861L36.4864 241.56C36.6145 241.458 36.763 241.384 36.9219 241.344C37.0808 241.304 37.2465 241.298 37.4078 241.327C37.569 241.357 37.7222 241.42 37.857 241.513C37.9918 241.606 38.1052 241.727 38.1895 241.867C38.2738 242.008 38.3271 242.165 38.3459 242.328C38.3646 242.49 38.3484 242.655 38.2982 242.811C38.248 242.967 38.1651 243.111 38.055 243.232C37.9449 243.354 37.8101 243.45 37.6597 243.515L30.4359 247.84C29.0326 248.697 27.8728 249.9 27.0673 251.334C26.2618 252.768 25.8374 254.384 25.8348 256.029V442.173C25.8349 442.328 25.8038 442.482 25.7431 442.624C25.6825 442.767 25.5935 442.896 25.4818 443.003C25.3701 443.111 25.2378 443.194 25.0929 443.249C24.948 443.304 24.7934 443.33 24.6386 443.323Z" fill="white"/>
<path d="M121.307 476.909C95.4253 476.908 69.5846 474.838 44.0321 470.721C43.8825 470.698 43.7388 470.646 43.6092 470.568C43.4796 470.49 43.3667 470.387 43.277 470.265C43.1872 470.144 43.1224 470.005 43.0862 469.858C43.0499 469.712 43.0431 469.559 43.0659 469.409C43.1221 469.11 43.2928 468.843 43.5419 468.667C43.791 468.491 44.0988 468.419 44.4002 468.466C71.5918 472.835 99.106 474.882 126.645 474.585C154.222 474.275 181.722 471.605 208.843 466.603C211.045 466.196 213.036 465.033 214.472 463.316C215.908 461.598 216.7 459.433 216.711 457.195V347.974C216.711 347.669 216.832 347.376 217.048 347.161C217.264 346.945 217.556 346.824 217.861 346.824C218.166 346.824 218.459 346.945 218.675 347.161C218.891 347.376 219.012 347.669 219.012 347.974V457.195C219.008 459.973 218.029 462.661 216.247 464.792C214.465 466.924 211.991 468.362 209.257 468.857C182.006 473.875 154.376 476.56 126.668 476.885L121.307 476.909Z" fill="white"/>
<path d="M217.862 312.962C217.557 312.962 217.264 312.841 217.048 312.626C216.833 312.41 216.712 312.117 216.712 311.812V257.225C216.708 255.336 216.141 253.491 215.084 251.926C214.027 250.361 212.527 249.146 210.776 248.438L203.414 245.516C200.749 244.463 198.557 242.476 197.249 239.926C197.157 239.792 197.095 239.64 197.066 239.48C197.037 239.32 197.043 239.156 197.082 238.998C197.121 238.841 197.194 238.693 197.294 238.565C197.395 238.438 197.521 238.333 197.665 238.257C197.809 238.182 197.968 238.138 198.13 238.128C198.292 238.119 198.455 238.144 198.607 238.201C198.759 238.259 198.897 238.348 199.011 238.463C199.126 238.578 199.216 238.716 199.273 238.868C200.312 240.965 202.091 242.604 204.266 243.469L211.627 246.39C213.836 247.264 215.731 248.782 217.064 250.747C218.398 252.713 219.109 255.034 219.104 257.409V311.996C219.059 312.285 218.905 312.546 218.674 312.725C218.443 312.905 218.153 312.989 217.862 312.962Z" fill="white"/>
<path d="M225.638 197.347H22.8214C21.4746 197.347 20.3828 198.439 20.3828 199.786V209.378C20.3828 210.725 21.4746 211.816 22.8214 211.816H225.638C226.984 211.816 228.076 210.725 228.076 209.378V199.786C228.076 198.439 226.984 197.347 225.638 197.347Z" fill="#6EA3DB"/>
<path d="M184.158 468.766C178.627 471.167 172.508 471.875 166.575 470.799C160.642 469.723 155.161 466.911 150.826 462.72C146.491 458.529 143.497 453.146 142.222 447.253C140.947 441.359 141.449 435.22 143.664 429.612C145.879 424.004 149.708 419.179 154.666 415.748C159.624 412.316 165.489 410.432 171.518 410.333C177.547 410.235 183.47 411.927 188.538 415.195C193.605 418.463 197.589 423.161 199.986 428.693C201.579 432.364 202.434 436.312 202.501 440.312C202.568 444.313 201.845 448.287 200.375 452.009C198.906 455.73 196.717 459.125 193.934 462C191.152 464.876 187.83 467.174 184.158 468.766Z" fill="#6BA4DC"/>
<path d="M148.891 450.868C146.883 446.276 146.284 441.192 147.17 436.259C148.055 431.326 150.386 426.768 153.866 423.161C157.346 419.554 161.819 417.062 166.717 416.001C171.616 414.939 176.719 415.356 181.38 417.199C186.041 419.041 190.05 422.226 192.899 426.349C195.748 430.473 197.307 435.349 197.381 440.36C197.454 445.371 196.038 450.291 193.311 454.496C190.584 458.702 186.67 462.002 182.065 463.98C175.925 466.618 168.99 466.719 162.775 464.263C156.56 461.806 151.569 456.991 148.891 450.868ZM191.98 432.19C190.27 428.245 187.427 424.897 183.813 422.567C180.199 420.238 175.976 419.033 171.676 419.104C167.377 419.175 163.196 420.519 159.66 422.966C156.125 425.413 153.395 428.854 151.816 432.853C150.236 436.851 149.877 441.229 150.786 445.431C151.694 449.633 153.828 453.472 156.918 456.462C160.008 459.451 163.916 461.458 168.146 462.227C172.376 462.996 176.74 462.493 180.685 460.783C185.976 458.484 190.139 454.179 192.257 448.813C194.375 443.447 194.276 437.459 191.98 432.166V432.19Z" fill="#6BA4DC"/>
<path d="M153.262 447.786L156.897 446.222C156.376 444.581 156.181 442.854 156.322 441.138C156.528 439.684 157.115 438.311 158.024 437.159C159.104 435.766 160.489 434.641 162.073 433.869L164.374 437.113C162.693 437.988 161.308 439.34 160.394 441C159.793 442.207 159.678 443.598 160.072 444.888L171.575 439.873C171.204 438.086 171.157 436.247 171.437 434.444C171.631 433.151 172.171 431.935 173.001 430.925C173.94 429.795 175.141 428.911 176.498 428.348C177.943 427.711 179.524 427.442 181.099 427.566C182.521 427.645 183.893 428.123 185.056 428.946C186.353 429.951 187.419 431.222 188.184 432.673L189.91 431.914L190.83 434.007L189.082 434.766C189.54 436.112 189.727 437.535 189.634 438.953C189.489 440.229 189.039 441.452 188.323 442.518C187.478 443.751 186.37 444.78 185.079 445.532L182.939 442.173C184.059 441.654 184.971 440.772 185.526 439.669C186.082 438.567 186.248 437.309 185.999 436.1L175.509 440.701C175.718 441.85 175.864 443.01 175.946 444.175C175.999 445.345 175.835 446.515 175.462 447.625C175.092 448.723 174.488 449.728 173.691 450.57C172.804 451.558 171.713 452.343 170.493 452.87C169.342 453.425 168.092 453.744 166.815 453.807C165.539 453.871 164.263 453.677 163.063 453.238C160.776 452.375 158.913 450.66 157.863 448.453L154.205 450.04L153.262 447.786ZM185.125 433.984C184.418 432.836 183.337 431.967 182.065 431.523C180.766 431.114 179.36 431.212 178.131 431.799C175.831 432.834 174.703 435.019 175.048 438.355L185.125 433.984ZM160.877 446.981C161.614 448.201 162.765 449.116 164.121 449.557C165.644 450.037 167.294 449.905 168.722 449.189C169.884 448.772 170.862 447.957 171.483 446.889C172.043 445.424 172.21 443.838 171.966 442.288L160.877 446.981Z" fill="#6BA4DC"/>
<path d="M206.013 447.204C208.798 430.615 197.607 414.91 181.017 412.125C164.427 409.34 148.721 420.53 145.936 437.119C143.15 453.708 154.341 469.413 170.931 472.198C187.521 474.983 203.228 463.793 206.013 447.204Z" fill="#FEF1EE"/>
<path d="M152.779 452.157C150.777 447.564 150.184 442.481 151.074 437.551C151.964 432.621 154.298 428.066 157.78 424.463C161.261 420.861 165.734 418.373 170.631 417.314C175.529 416.256 180.63 416.675 185.289 418.518C189.947 420.362 193.954 423.546 196.801 427.669C199.648 431.791 201.207 436.666 201.281 441.675C201.354 446.685 199.939 451.603 197.215 455.807C194.49 460.012 190.579 463.313 185.976 465.292C179.83 467.935 172.887 468.037 166.666 465.576C160.445 463.114 155.452 458.29 152.779 452.157ZM195.891 433.501C194.186 429.554 191.347 426.201 187.736 423.866C184.124 421.532 179.901 420.321 175.601 420.387C171.301 420.453 167.117 421.793 163.579 424.237C160.04 426.681 157.306 430.119 155.722 434.117C154.138 438.115 153.776 442.493 154.681 446.697C155.585 450.901 157.717 454.742 160.805 457.734C163.894 460.727 167.8 462.736 172.031 463.508C176.261 464.28 180.626 463.78 184.573 462.072C189.853 459.772 194.008 455.476 196.129 450.122C198.25 444.768 198.164 438.792 195.891 433.501Z" fill="#6BA4DC"/>
<path d="M157.219 449.12L160.854 447.533C160.321 445.895 160.125 444.165 160.279 442.449C160.48 440.998 161.059 439.626 161.958 438.47C163.051 437.09 164.433 435.967 166.007 435.18L168.308 438.447C166.622 439.315 165.236 440.669 164.328 442.334C163.714 443.529 163.598 444.919 164.006 446.199L175.509 441.184C175.137 439.405 175.091 437.574 175.371 435.778C175.555 434.476 176.097 433.25 176.935 432.236C177.877 431.114 179.077 430.238 180.432 429.682C181.874 429.034 183.456 428.758 185.033 428.877C186.459 428.974 187.833 429.45 189.013 430.257C190.313 431.262 191.373 432.543 192.119 434.007L193.867 433.248L194.764 435.341L193.039 436.1C193.503 437.444 193.683 438.87 193.568 440.287C193.485 441.595 193.073 442.861 192.372 443.968C191.527 445.2 190.419 446.229 189.128 446.981L186.988 443.599C188.101 443.078 189.007 442.199 189.562 441.102C190.116 440.006 190.288 438.755 190.048 437.55L179.558 442.15C179.834 443.945 179.972 445.095 179.995 445.647C180.026 446.808 179.863 447.967 179.512 449.074C179.147 450.18 178.533 451.188 177.717 452.019C176.836 453.005 175.754 453.789 174.542 454.319C173.425 454.869 172.209 455.19 170.966 455.265C169.723 455.34 168.478 455.167 167.302 454.756C166.127 454.345 165.045 453.704 164.119 452.871C163.194 452.038 162.444 451.029 161.912 449.902L158.231 451.513L157.219 449.12ZM189.059 435.318C188.374 434.156 187.297 433.275 186.022 432.834C184.723 432.423 183.317 432.521 182.088 433.11C179.788 434.145 178.66 436.33 179.005 439.666L189.059 435.318ZM164.765 448.292C165.483 449.534 166.64 450.462 168.009 450.892C169.535 451.348 171.176 451.217 172.61 450.524C173.772 450.106 174.75 449.291 175.371 448.223C175.93 446.758 176.089 445.17 175.831 443.623L164.765 448.292Z" fill="#6BA4DC"/>
<path d="M191.681 471.02L106.147 463.612C126.006 412.403 133.616 357.261 128.37 302.588L212.524 307.741C212.345 333.731 210.694 359.689 207.578 385.493C204.096 414.309 198.786 442.876 191.681 471.02Z" fill="#243A9D"/>
<path d="M187.149 459.242L113.532 452.847C130.581 408.799 137.126 361.384 132.649 314.366L205.001 318.828C204.866 341.174 203.445 363.494 200.745 385.677C197.786 410.463 193.244 435.035 187.149 459.242Z" fill="#6EA3DB"/>
<path d="M183.883 450.478H183.652L118.892 444.842L119.03 444.497C133.95 406 139.677 364.552 135.755 323.452V323.13H136.077L199.687 327.018V327.294C199.405 368.752 194.137 410.025 183.998 450.225L183.883 450.478ZM119.72 444.336L183.445 449.88C188.767 428.79 192.747 407.385 195.362 385.792C197.688 366.477 198.925 347.047 199.066 327.593L136.353 323.728C140.217 364.676 134.524 405.962 119.72 444.336Z" fill="#3B646C"/>
<path d="M191.267 391.06L186.482 390.577C186.063 392.626 185.242 394.573 184.067 396.305C182.978 397.717 181.544 398.826 179.903 399.525C177.93 400.341 175.8 400.703 173.668 400.583L173.254 395.821C175.558 395.907 177.834 395.297 179.788 394.073C181.136 393.155 182.083 391.756 182.433 390.163L167.181 388.598C166.527 390.71 165.49 392.683 164.121 394.418C163.151 395.679 161.854 396.65 160.371 397.225C158.701 397.862 156.899 398.076 155.126 397.846C153.227 397.675 151.401 397.034 149.812 395.982C148.328 395.076 147.132 393.768 146.361 392.21C145.578 390.381 145.208 388.401 145.28 386.413L142.979 386.183L143.255 383.423L145.556 383.653C145.871 381.962 146.52 380.351 147.465 378.914C148.383 377.654 149.58 376.622 150.962 375.9C152.596 375.099 154.387 374.667 156.207 374.635L156.46 379.466C154.961 379.35 153.466 379.74 152.214 380.574C150.963 381.408 150.028 382.638 149.559 384.067L163.362 385.493C163.836 384.154 164.382 382.841 164.995 381.559C165.637 380.301 166.494 379.165 167.526 378.201C168.582 377.255 169.83 376.549 171.184 376.13C172.671 375.671 174.239 375.53 175.785 375.716C177.333 375.809 178.846 376.213 180.233 376.905C181.621 377.596 182.855 378.561 183.86 379.742C185.765 382.011 186.721 384.928 186.528 387.885L191.359 388.391L191.267 391.06ZM149.329 386.758C149.371 388.402 149.999 389.976 151.1 391.198C152.234 392.399 153.777 393.13 155.425 393.245C158.577 393.567 160.969 391.865 162.58 388.115L149.329 386.758ZM182.709 387.402C182.674 385.688 182.002 384.047 180.823 382.802C179.473 381.416 177.648 380.594 175.716 380.501C174.211 380.282 172.676 380.608 171.391 381.421C169.921 382.641 168.802 384.228 168.147 386.022L182.709 387.402Z" fill="#243A9D"/>
<path d="M121.653 434.191L64.0012 453.008C62.7567 414.232 52.4765 376.281 33.979 342.177L90.1123 322.302C97.1696 339.245 103.268 356.571 108.379 374.198C114.068 393.895 118.501 413.933 121.653 434.191Z" fill="#243A9D"/>
<path d="M115.464 427.865L65.8414 443.967C64.7591 410.626 55.9213 377.995 40.0293 348.664L88.3408 331.572C94.4299 346.142 99.6761 361.05 104.053 376.222C108.94 393.179 112.751 410.428 115.464 427.865Z" fill="#6EA3DB"/>
<path d="M67.0379 437.412V437.066C66.0929 407.935 58.3739 379.424 44.4926 353.794L44.3315 353.495L87.1447 338.335V338.588C98.4293 365.625 106.409 393.925 110.909 422.873V423.103H110.679L67.0379 437.412ZM45.1367 353.771C58.8893 379.282 66.5729 407.62 67.5901 436.583L110.38 422.643C105.883 393.923 97.9668 365.843 86.7996 339.003L45.1367 353.771Z" fill="#3B646C"/>
<path d="M99.3145 382.387L96.0708 383.376C96.3602 384.827 96.3602 386.32 96.0708 387.77C95.7496 388.988 95.1242 390.104 94.2533 391.014C93.189 392.087 91.9006 392.912 90.4804 393.429L88.893 390.438C90.4121 389.86 91.7252 388.843 92.6659 387.517C93.3522 386.541 93.6327 385.337 93.4481 384.159L83.0956 387.356C83.2551 388.901 83.1224 390.461 82.7045 391.957C82.4192 393.046 81.8472 394.039 81.0481 394.832C80.145 395.705 79.0378 396.337 77.8274 396.672C76.5445 397.097 75.1738 397.184 73.8475 396.925C72.6372 396.723 71.5065 396.19 70.5807 395.384C69.5791 394.4 68.7954 393.217 68.2801 391.911L66.7388 392.371L66.1406 390.507L67.705 390.024C67.4542 388.834 67.4542 387.604 67.705 386.413C67.9477 385.337 68.4447 384.336 69.1543 383.491C69.9735 382.499 71.0134 381.711 72.1911 381.191L73.6864 384.251C72.6884 384.599 71.8348 385.27 71.26 386.157C70.6852 387.044 70.4219 388.097 70.5116 389.15L79.6448 386.459C79.5873 385.455 79.5873 384.449 79.6448 383.445C79.7099 382.445 79.9514 381.464 80.358 380.547C80.7877 379.656 81.4082 378.871 82.1754 378.247C83.029 377.521 84.0239 376.981 85.0971 376.659C86.1323 376.3 87.2287 376.149 88.3226 376.216C89.4164 376.283 90.4862 376.567 91.4697 377.05C93.3398 378.007 94.7603 379.659 95.4265 381.651L98.7164 380.616L99.3145 382.387ZM70.8797 391.06C71.3469 392.105 72.1592 392.957 73.1803 393.475C74.2667 393.904 75.4757 393.904 76.5621 393.475C78.7246 392.831 79.8058 391.175 79.8288 388.184L70.8797 391.06ZM92.758 382.272C92.2515 381.154 91.3506 380.261 90.2273 379.765C88.9558 379.265 87.542 379.265 86.2704 379.765C85.2311 380.036 84.3196 380.663 83.6938 381.536C83.0765 382.743 82.7906 384.093 82.8656 385.447L92.758 382.272Z" fill="#243A9D"/>
<path d="M113.832 437.999C118.56 418.125 106.28 398.182 86.4035 393.454C66.5275 388.727 46.5822 401.006 41.8544 420.88C37.1266 440.754 49.4066 460.698 69.2826 465.425C89.1586 470.153 109.104 457.874 113.832 437.999Z" fill="#6BA4DC"/>
<path d="M77.8043 460.07C71.7492 460.065 65.8313 458.266 60.7988 454.899C55.7664 451.532 51.8453 446.748 49.5313 441.153C47.2172 435.558 46.6141 429.403 47.7982 423.465C48.9823 417.527 51.9004 412.074 56.1836 407.794C60.4668 403.514 65.9229 400.601 71.862 399.421C77.8012 398.242 83.9567 398.849 89.5504 401.167C95.1442 403.485 99.9251 407.41 103.289 412.444C106.652 417.479 108.448 423.398 108.448 429.452C108.441 437.575 105.21 445.362 99.4643 451.104C93.7182 456.845 85.9274 460.07 77.8043 460.07ZM77.8043 403.067C72.5864 403.072 67.4869 404.623 63.1505 407.525C58.8142 410.427 55.4357 414.549 53.442 419.371C51.4484 424.193 50.9291 429.497 51.9498 434.614C52.9706 439.73 55.4856 444.43 59.1768 448.117C62.8681 451.805 67.5698 454.316 72.6878 455.332C77.8058 456.348 83.1103 455.824 87.9306 453.826C92.7509 451.829 96.8706 448.447 99.7691 444.108C102.668 439.77 104.215 434.67 104.215 429.452C104.221 425.98 103.542 422.541 102.217 419.332C100.893 416.123 98.9485 413.206 96.4955 410.749C94.0425 408.292 91.129 406.343 87.9217 405.013C84.7145 403.683 81.2764 402.998 77.8043 402.998V403.067Z" fill="#6BA4DC"/>
<path d="M76.5622 453.606V448.798C74.4748 448.596 72.449 447.978 70.6038 446.981C69.0869 446.056 67.841 444.746 66.9919 443.185C65.9645 441.311 65.3821 439.225 65.2896 437.089L69.8906 436.169C70.0428 438.473 70.8844 440.677 72.3062 442.495C73.342 443.775 74.8357 444.6 76.4702 444.796V429.475C74.3241 429.005 72.2817 428.147 70.4428 426.945C69.0894 426.116 67.9908 424.93 67.268 423.517C66.4761 421.917 66.0815 420.15 66.1177 418.365C66.0907 416.451 66.5414 414.562 67.429 412.867C68.2096 411.314 69.4141 410.014 70.9029 409.117C72.6499 408.169 74.5794 407.604 76.5622 407.461V405.161H79.3228V407.461C81.0429 407.585 82.719 408.063 84.246 408.864C85.6022 409.64 86.7536 410.728 87.6048 412.039C88.5641 413.575 89.1765 415.302 89.3992 417.099L84.6141 417.859C84.57 416.361 84.0247 414.921 83.0654 413.77C82.106 412.619 80.7882 411.823 79.3228 411.51V425.312C80.7069 425.642 82.0737 426.041 83.4179 426.508C84.74 427.058 85.9548 427.837 87.0067 428.808C88.0632 429.756 88.896 430.927 89.4453 432.236C90.0622 433.69 90.3677 435.257 90.3425 436.836C90.4608 439.88 89.3671 442.846 87.3013 445.084C85.2355 447.322 82.3662 448.65 79.3228 448.775V453.629L76.5622 453.606ZM76.5622 411.464C74.9401 411.678 73.4434 412.451 72.3292 413.649C71.2293 414.922 70.661 416.569 70.7418 418.25C70.7418 421.424 72.6743 423.632 76.5622 424.852V411.464ZM79.3228 444.727C81.0352 444.531 82.6157 443.712 83.7629 442.426C85.0244 440.961 85.6749 439.067 85.5803 437.135C85.6634 435.61 85.1893 434.105 84.246 432.903C82.877 431.565 81.1785 430.613 79.3228 430.142V444.727Z" fill="#6BA4DC"/>
<path d="M107.339 451.841C121.786 437.395 121.786 413.975 107.339 399.529C92.8927 385.084 69.4702 385.084 55.0236 399.529C40.577 413.975 40.577 437.395 55.0236 451.841C69.4702 466.286 92.8927 466.286 107.339 451.841Z" fill="#FEF1EE"/>
<path d="M81.1632 456.297C75.1035 456.288 69.1826 454.483 64.1489 451.11C59.1152 447.736 55.1947 442.946 52.8832 437.345C50.5716 431.744 49.9726 425.584 51.162 419.642C52.3515 413.701 55.2759 408.246 59.5655 403.966C63.8552 399.687 69.3176 396.775 75.262 395.599C81.2065 394.423 87.3662 395.036 92.9624 397.36C98.5587 399.684 103.34 403.614 106.703 408.655C110.065 413.696 111.857 419.621 111.853 425.68C111.849 429.705 111.053 433.691 109.509 437.409C107.965 441.127 105.703 444.504 102.853 447.347C100.003 450.191 96.6203 452.445 92.8987 453.98C89.1771 455.516 85.1893 456.303 81.1632 456.297ZM81.1632 399.295C75.9453 399.299 70.8459 400.851 66.5095 403.753C62.1732 406.655 58.7946 410.777 56.8009 415.599C54.8073 420.42 54.288 425.725 55.3087 430.841C56.3295 435.958 58.8445 440.657 62.5357 444.345C66.227 448.033 70.9288 450.543 76.0468 451.559C81.1648 452.576 86.4692 452.052 91.2895 450.054C96.1098 448.056 100.23 444.675 103.128 440.336C106.026 435.998 107.574 430.897 107.574 425.68C107.567 418.68 104.782 411.969 99.83 407.021C94.8777 402.074 88.1637 399.295 81.1632 399.295Z" fill="#6BA4DC"/>
<path d="M79.9206 449.902V445.095C77.8332 444.892 75.8074 444.274 73.9622 443.277C72.45 442.346 71.2055 441.038 70.3503 439.482C69.3234 437.599 68.7411 435.506 68.6479 433.363L73.249 432.466C73.4081 434.767 74.249 436.97 75.6646 438.792C76.7004 440.071 78.1941 440.896 79.8286 441.092V425.772C77.6552 425.333 75.5811 424.498 73.7092 423.31C72.3661 422.469 71.2705 421.286 70.5344 419.883C69.7425 418.283 69.3479 416.515 69.3841 414.73C69.3571 412.817 69.8078 410.927 70.6954 409.232C71.476 407.679 72.6804 406.379 74.1692 405.483C75.9099 404.515 77.8419 403.942 79.8286 403.803V401.503H82.5893V403.803C84.311 403.935 85.9871 404.42 87.5125 405.23C88.8639 406.012 90.014 407.099 90.8712 408.404C91.8339 409.939 92.4466 411.667 92.6657 413.465L87.8805 414.224C87.8324 412.727 87.2857 411.29 86.327 410.139C85.3683 408.989 84.0528 408.192 82.5893 407.875V421.677C83.9748 422.011 85.3417 422.418 86.6842 422.896C87.998 423.411 89.2123 424.151 90.2731 425.082C91.324 426.025 92.1562 427.187 92.7116 428.486C93.515 430.227 93.8767 432.139 93.7648 434.053C93.6528 435.967 93.0705 437.824 92.0696 439.46C91.0687 441.095 89.6799 442.459 88.0263 443.43C86.3727 444.4 84.5053 444.949 82.5893 445.026V449.902H79.9206ZM79.9206 407.76C78.2791 407.993 76.7765 408.81 75.6876 410.06C74.5835 411.331 74.0146 412.98 74.1002 414.661C74.1002 417.835 76.0327 420.021 79.9206 421.263V407.76ZM82.6813 441.023C84.3936 440.827 85.9741 440.009 87.1213 438.723C88.3822 437.248 89.0322 435.347 88.9388 433.409C89.0226 431.89 88.548 430.393 87.6044 429.199C86.2354 427.861 84.537 426.909 82.6813 426.439V441.023Z" fill="#6BA4DC"/>
<path d="M102.811 394.257C97.3618 391.689 92.7962 387.562 89.692 382.4C86.5878 377.237 85.0845 371.27 85.3721 365.253C85.6598 359.235 87.7255 353.439 91.3079 348.596C94.8904 343.752 99.8288 340.08 105.499 338.044C111.168 336.007 117.315 335.697 123.16 337.153C129.006 338.61 134.289 341.767 138.34 346.225C142.392 350.684 145.03 356.243 145.921 362.201C146.812 368.159 145.916 374.247 143.347 379.696C139.897 386.997 133.692 392.631 126.092 395.361C118.492 398.091 110.119 397.694 102.811 394.257Z" fill="#6BA4DC"/>
<path d="M92.988 355.933C95.1132 351.395 98.538 347.59 102.828 345.001C107.118 342.412 112.081 341.154 117.087 341.388C122.092 341.622 126.916 343.336 130.946 346.315C134.976 349.293 138.031 353.4 139.724 358.116C141.417 362.833 141.671 367.945 140.455 372.806C139.239 377.667 136.606 382.057 132.892 385.421C129.177 388.784 124.547 390.969 119.59 391.699C114.632 392.428 109.569 391.669 105.043 389.518C99.0037 386.648 94.346 381.505 92.0872 375.212C89.8285 368.919 90.1523 361.988 92.988 355.933ZM135.456 375.969C137.273 372.075 137.894 367.729 137.242 363.482C136.59 359.235 134.693 355.276 131.792 352.106C128.891 348.935 125.115 346.696 120.942 345.671C116.769 344.645 112.385 344.879 108.345 346.344C104.305 347.808 100.789 350.437 98.2422 353.898C95.6954 357.359 94.2317 361.498 94.0359 365.79C93.8401 370.083 94.9211 374.337 97.1422 378.016C99.3634 381.695 102.625 384.633 106.515 386.459C109.104 387.671 111.907 388.361 114.762 388.489C117.618 388.618 120.471 388.183 123.159 387.209C125.846 386.235 128.316 384.741 130.426 382.812C132.536 380.884 134.245 378.558 135.456 375.969Z" fill="#6BA4DC"/>
<path d="M98.1871 357.244L101.776 358.946C102.658 357.469 103.823 356.179 105.204 355.151C106.431 354.34 107.853 353.871 109.322 353.794C111.076 353.689 112.831 353.988 114.452 354.668L113.486 358.486C111.716 357.785 109.776 357.633 107.918 358.049C106.627 358.391 105.516 359.214 104.813 360.35L116.315 365.733C117.401 364.269 118.751 363.02 120.295 362.052C121.385 361.336 122.65 360.93 123.953 360.879C125.427 360.848 126.887 361.171 128.209 361.822C129.644 362.48 130.893 363.483 131.844 364.743C132.719 365.87 133.268 367.214 133.432 368.631C133.53 370.27 133.271 371.91 132.672 373.439L134.375 374.244L133.408 376.314L131.706 375.509C130.993 376.738 130.048 377.816 128.922 378.683C127.862 379.408 126.65 379.88 125.38 380.064C123.891 380.241 122.382 380.084 120.963 379.604L122.09 375.785C123.219 376.276 124.48 376.375 125.673 376.066C126.865 375.758 127.92 375.06 128.669 374.083L118.317 369.206C117.167 370.586 116.384 371.506 116.016 371.828C115.168 372.628 114.187 373.274 113.118 373.738C112.048 374.184 110.893 374.389 109.736 374.336C108.433 374.291 107.155 373.969 105.986 373.393C104.832 372.92 103.784 372.222 102.904 371.34C102.024 370.457 101.329 369.408 100.859 368.253C100.39 367.098 100.156 365.861 100.171 364.614C100.187 363.368 100.451 362.137 100.948 360.994L97.3359 359.292L98.1871 357.244ZM129.59 372.059C129.996 370.77 129.947 369.381 129.452 368.125C128.895 366.878 127.882 365.891 126.622 365.364C124.321 364.237 122.021 364.927 119.72 367.389L129.59 372.059ZM103.823 362.443C103.386 363.802 103.46 365.275 104.031 366.584C104.693 368.034 105.875 369.183 107.343 369.804C108.46 370.389 109.748 370.56 110.978 370.287C112.45 369.726 113.751 368.79 114.751 367.573L103.823 362.443Z" fill="#6BA4DC"/>
<path d="M123.428 400.392C139.913 397.042 150.561 380.963 147.21 364.479C143.859 347.996 127.779 337.349 111.294 340.7C94.8086 344.05 84.1613 360.129 87.5122 376.613C90.8631 393.097 106.943 403.743 123.428 400.392Z" fill="#FEF1EE"/>
<path d="M94.5522 359.752C96.6754 355.213 100.098 351.407 104.387 348.816C108.676 346.225 113.637 344.966 118.642 345.197C123.648 345.428 128.472 347.14 132.503 350.116C136.535 353.091 139.592 357.197 141.287 361.912C142.983 366.626 143.24 371.738 142.027 376.6C140.814 381.461 138.185 385.853 134.473 389.218C130.762 392.584 126.134 394.772 121.177 395.505C116.22 396.238 111.157 395.484 106.63 393.337C100.587 390.471 95.924 385.329 93.6608 379.036C91.3976 372.743 91.718 365.809 94.5522 359.752ZM137.043 379.765C138.875 375.876 139.513 371.531 138.876 367.279C138.239 363.027 136.355 359.06 133.463 355.879C130.571 352.698 126.801 350.446 122.629 349.407C118.457 348.368 114.071 348.589 110.025 350.043C105.979 351.497 102.454 354.117 99.8977 357.574C97.3409 361.03 95.8664 365.166 95.6607 369.46C95.4549 373.755 96.5272 378.013 98.7417 381.698C100.956 385.383 104.214 388.328 108.102 390.162C110.691 391.398 113.499 392.11 116.364 392.256C119.229 392.402 122.094 391.979 124.795 391.013C127.496 390.046 129.979 388.555 132.101 386.624C134.223 384.694 135.942 382.362 137.158 379.765H137.043Z" fill="#6BA4DC"/>
<path d="M99.7746 361.155L103.363 362.834C104.226 361.29 105.392 359.937 106.791 358.855C108.028 358.064 109.444 357.597 110.909 357.498C112.663 357.403 114.416 357.702 116.039 358.372L115.073 362.19C113.298 361.513 111.365 361.361 109.506 361.753C108.216 362.11 107.102 362.929 106.377 364.054L117.88 369.436C118.966 367.973 120.316 366.725 121.86 365.756C122.952 365.047 124.216 364.649 125.518 364.606C126.993 364.563 128.455 364.887 129.774 365.549C131.207 366.198 132.456 367.194 133.409 368.447C134.284 369.582 134.833 370.934 134.996 372.358C135.082 373.996 134.823 375.634 134.237 377.166L135.939 377.971L134.973 380.018L133.248 379.213C132.549 380.452 131.601 381.533 130.464 382.387C129.424 383.134 128.214 383.609 126.944 383.768C125.458 383.953 123.948 383.803 122.527 383.331L123.654 379.512C124.786 380 126.049 380.095 127.241 379.783C128.434 379.47 129.487 378.767 130.234 377.787L119.881 372.91C118.731 374.29 117.949 375.21 117.581 375.532C116.733 376.339 115.753 376.992 114.682 377.465C113.602 377.903 112.442 378.106 111.277 378.063C109.353 377.949 107.498 377.3 105.922 376.191C104.345 375.082 103.109 373.555 102.351 371.783C101.495 369.496 101.553 366.967 102.512 364.721L98.9004 362.995L99.7746 361.155ZM131.177 375.946C131.578 374.664 131.521 373.281 131.016 372.036C130.477 370.779 129.471 369.781 128.209 369.252C125.909 368.148 123.608 368.815 121.308 371.277L131.177 375.946ZM105.411 366.331C104.974 367.69 105.047 369.163 105.618 370.472C106.275 371.926 107.459 373.077 108.931 373.692C110.044 374.289 111.336 374.461 112.566 374.175C114.032 373.615 115.331 372.688 116.339 371.484L105.411 366.331Z" fill="#6BA4DC"/>
<path d="M106.009 305.946C104.246 304.56 102.207 303.566 100.029 303.03C97.8513 302.494 95.584 302.43 93.379 302.841C90.8568 303.44 88.4784 304.533 86.3815 306.057C84.2846 307.581 82.5109 309.506 81.1631 311.72C79.8219 309.505 78.0531 307.579 75.9597 306.055C73.8663 304.53 71.4902 303.438 68.9702 302.841C66.7303 302.295 64.3905 302.308 62.1569 302.879C59.9233 303.451 57.8646 304.563 56.1621 306.117C54.4596 307.672 53.1657 309.621 52.3944 311.794C51.6231 313.966 51.3981 316.295 51.7391 318.575C52.1992 324.142 55.512 327.777 59.0089 331.779C76.286 351.539 77.5743 357.083 81.1631 356.278C84.775 356.968 86.0633 351.539 103.317 331.779C106.837 327.754 110.219 324.142 110.61 318.575C110.822 316.261 110.519 313.929 109.724 311.746C108.928 309.562 107.66 307.582 106.009 305.946Z" fill="#FF316C"/>
<path d="M148.937 442.38C148.125 440.124 146.84 438.066 145.17 436.345C143.5 434.623 141.483 433.277 139.252 432.397C136.625 431.513 133.849 431.16 131.085 431.357C128.32 431.554 125.623 432.299 123.148 433.547C123.203 427.947 121.035 422.554 117.121 418.548C115.351 416.927 113.256 415.702 110.974 414.956C108.693 414.21 106.278 413.96 103.893 414.224C101.466 414.759 99.1909 415.83 97.2324 417.358C95.274 418.887 93.6822 420.834 92.5738 423.057C89.8132 428.371 90.7794 433.524 91.6767 439.16C96.1397 466.764 94.2073 472.515 97.8651 473.941C100.741 476.586 104.997 472.4 131.844 464.279C137.319 462.623 142.381 461.22 145.947 456.435C147.457 454.461 148.509 452.176 149.026 449.745C149.543 447.314 149.513 444.798 148.937 442.38Z" fill="#FF316C"/>
<path d="M155.724 341.004C155.269 339.753 154.548 338.616 153.61 337.671C152.673 336.725 151.542 335.995 150.295 335.529C147.332 334.581 144.114 334.846 141.346 336.265C141.351 334.728 141.049 333.205 140.456 331.787C139.864 330.368 138.993 329.083 137.895 328.007C136.929 327.035 135.738 326.316 134.427 325.914C133.117 325.513 131.728 325.441 130.383 325.705C129.038 325.969 127.779 326.56 126.718 327.428C125.656 328.295 124.825 329.41 124.298 330.675C123.157 333.528 123.019 336.683 123.907 339.624C126.599 354.967 125.564 358.027 127.611 358.901C129.222 360.35 131.545 357.981 146.407 353.288C149.428 352.721 152.169 351.148 154.183 348.825C155.001 347.716 155.563 346.44 155.83 345.087C156.096 343.735 156.06 342.341 155.724 341.004Z" fill="#FF316C"/>
<path d="M110.909 261.711C109.595 261.94 108.345 262.446 107.243 263.195C106.14 263.945 105.21 264.921 104.514 266.058C103.773 267.406 103.31 268.887 103.152 270.416C102.994 271.946 103.144 273.491 103.593 274.961C100.533 274.397 97.3734 275.067 94.8052 276.824C93.7466 277.653 92.8753 278.696 92.2489 279.885C91.6224 281.075 91.2549 282.384 91.1704 283.725C91.2273 285.105 91.5938 286.454 92.243 287.672C92.8921 288.891 93.8072 289.947 94.9203 290.764C97.5069 292.424 100.584 293.146 103.639 292.812C119.237 293.042 122.044 294.629 123.263 292.812C124.988 291.5 123.102 288.763 121.238 273.305C121.26 270.232 120.229 267.245 118.317 264.839C117.392 263.8 116.247 262.981 114.966 262.439C113.685 261.898 112.299 261.649 110.909 261.711Z" fill="#FF316C"/>
<path d="M193.361 240.225C193.775 243.101 164.098 252.831 130.28 254.281C86.3853 256.144 48.6793 243.492 49.1394 240.225C49.5075 237.649 73.6403 241.721 128.278 241.238C172.265 240.823 192.993 237.833 193.361 240.225Z" fill="white"/>
<path d="M400.364 0C397.028 5.68187 393.278 11.5018 389.068 17.2526C363.319 52.3452 328.184 79.4556 287.706 95.4645C270.797 131.695 250.898 145.451 235.99 151.409C211.949 161.048 201.482 150.075 164.443 160.173C131.499 169.168 112.198 185.316 106.538 179.036C102.328 174.436 109.621 161.623 111.738 157.896C123.999 136.503 146.89 130.039 154.021 128.314L176.475 90.2657L138.102 92.8651C131.483 105.357 123.1 116.831 113.21 126.933C107.55 132.707 92.1368 148.419 87.6737 145.543C84.499 143.496 85.8333 131.373 108.494 83.7558L148.178 41.4063C181.379 31.9824 216.577 32.2058 249.655 42.0504C262.06 29.4564 273.302 15.7673 283.243 1.15018C283.496 0.759116 283.772 0.39106 284.002 0H400.364Z" fill="#FF8F6C"/>
<path d="M204.449 116.835C204.449 131.856 188.346 140.436 165.34 153.088C145.671 163.969 130.303 172.319 119.168 166.108C102.742 156.907 99.2455 118.123 118.846 96.1775C124.648 89.8401 131.963 85.0785 140.107 82.3386C148.25 79.5988 156.956 78.9704 165.409 80.5121C184.435 84.1237 204.449 99.7661 204.449 116.835Z" fill="#FF8F6C"/>
<path d="M133.892 106.092C124.689 102.664 115.97 107.771 114.843 108.392C108.425 112.303 104.629 119.227 102.719 127.094C96.0247 122.493 88.571 119.894 81.1862 121.274C79.8979 121.504 70.0285 123.575 65.4275 132.224C60.8264 140.873 65.0364 150.627 65.7265 152.053C69.2924 159.506 75.7799 162.75 82.7275 166.43C116.983 184.58 121.607 191.389 126.208 188.536C131.545 187.57 130.441 179.335 143.83 143.059C146.568 135.674 149.213 128.934 146.89 121.021C146.361 119.48 143.37 109.588 133.892 106.092Z" fill="#FF316C"/>
<path d="M264.793 130.775C262.351 133.625 259.673 136.265 256.787 138.665C250.629 143.994 243.633 148.268 236.082 151.317C212.041 160.909 201.574 149.983 164.489 160.058C131.545 169.03 112.267 185.201 106.653 178.944C102.443 174.343 109.69 161.53 111.876 157.804C124.046 136.411 147.005 129.924 154.114 128.198C158.945 120.009 163.868 111.728 168.699 103.47C169.343 102.457 169.872 101.514 170.494 100.502C182.885 99.925 195.299 100.977 207.417 103.631C228.312 108.334 247.906 117.603 264.793 130.775Z" fill="#FF8F6C"/>
<path d="M133.224 103.792C133.09 103.836 132.945 103.836 132.81 103.792C132.71 103.741 132.621 103.671 132.549 103.584C132.477 103.498 132.423 103.398 132.391 103.291C132.359 103.183 132.349 103.07 132.361 102.959C132.374 102.847 132.409 102.739 132.465 102.642C133.915 99.9502 135.295 97.1668 136.583 94.3834C138.079 91.1399 139.459 87.8044 140.701 84.4459C140.74 84.3395 140.799 84.2419 140.875 84.1586C140.952 84.0754 141.044 84.0083 141.147 83.9612C141.25 83.9141 141.361 83.8879 141.474 83.8842C141.587 83.8806 141.7 83.8995 141.805 83.9398C141.914 83.9754 142.014 84.033 142.099 84.109C142.184 84.185 142.252 84.2778 142.3 84.3814C142.347 84.4851 142.373 84.5974 142.375 84.7114C142.377 84.8254 142.355 84.9386 142.312 85.044C141.069 88.4485 139.666 91.83 138.148 95.1195C136.859 97.9259 135.456 100.732 133.984 103.447C133.896 103.563 133.78 103.655 133.648 103.716C133.515 103.776 133.37 103.802 133.224 103.792Z" fill="#35322E"/>
<path d="M172.288 85.3201C170.954 85.3201 169.642 85.3201 168.308 85.3201C159.202 84.9849 150.181 83.4377 141.484 80.7194C141.286 80.6325 141.127 80.4755 141.038 80.2786C140.949 80.0817 140.937 79.8589 141.002 79.6531C141.068 79.4473 141.208 79.2731 141.394 79.1642C141.581 79.0553 141.801 79.0193 142.013 79.0632C150.555 81.7706 159.422 83.3181 168.377 83.6639C175.049 83.9215 181.73 83.5208 188.323 82.4677C188.435 82.4446 188.551 82.445 188.663 82.469C188.775 82.493 188.881 82.54 188.974 82.6071C189.067 82.6741 189.145 82.7597 189.203 82.8585C189.261 82.9572 189.298 83.067 189.312 83.1808C189.332 83.2927 189.329 83.4075 189.303 83.5182C189.278 83.629 189.231 83.7336 189.164 83.8258C189.098 83.918 189.013 83.9959 188.916 84.055C188.819 84.1142 188.711 84.1532 188.599 84.1699C183.2 84.9781 177.747 85.3627 172.288 85.3201Z" fill="#35322E"/>
<path d="M152.112 128.314C151.947 128.311 151.786 128.263 151.648 128.173C151.51 128.084 151.399 127.957 151.33 127.807C151.242 127.596 151.239 127.359 151.32 127.146C151.401 126.932 151.561 126.757 151.767 126.657L183.353 111.958L189.588 87.4133C189.648 87.1915 189.792 87.0021 189.99 86.8859C190.188 86.7697 190.424 86.736 190.646 86.7922C190.868 86.8517 191.058 86.996 191.174 87.194C191.29 87.392 191.324 87.6278 191.267 87.8504L184.918 112.717C184.889 112.842 184.829 112.957 184.745 113.053C184.661 113.15 184.554 113.224 184.435 113.269L152.48 128.152C152.377 128.243 152.248 128.299 152.112 128.314Z" fill="#35322E"/>
<path d="M141 82.9737C140.83 82.9711 140.663 82.9235 140.517 82.8357L132.741 77.7059C132.551 77.5792 132.418 77.383 132.371 77.1594C132.324 76.9359 132.366 76.7026 132.488 76.5097C132.551 76.415 132.632 76.3337 132.726 76.2707C132.821 76.2077 132.927 76.1642 133.038 76.1428C133.149 76.1213 133.264 76.1224 133.375 76.1459C133.486 76.1694 133.591 76.2149 133.685 76.2797L141.484 81.3865C141.578 81.449 141.66 81.5298 141.723 81.6242C141.786 81.7186 141.829 81.8247 141.851 81.9361C141.872 82.0476 141.871 82.1622 141.847 82.2732C141.824 82.3843 141.778 82.4895 141.714 82.5827C141.637 82.7022 141.531 82.8006 141.407 82.8689C141.282 82.9372 141.142 82.9732 141 82.9737Z" fill="#35322E"/>
<path d="M146.475 120.653C146.369 120.677 146.259 120.677 146.153 120.653C145.941 120.566 145.771 120.4 145.681 120.189C145.591 119.978 145.587 119.74 145.67 119.526L156.483 93.5093C156.527 93.405 156.591 93.3105 156.671 93.2309C156.751 93.1514 156.847 93.0885 156.951 93.0458C157.056 93.003 157.168 92.9814 157.281 92.9819C157.394 92.9825 157.506 93.0054 157.61 93.0492C157.714 93.093 157.809 93.1569 157.888 93.2372C157.968 93.3176 158.031 93.4128 158.074 93.5175C158.116 93.6222 158.138 93.7342 158.138 93.8473C158.137 93.9603 158.114 94.0721 158.07 94.1763L147.281 120.124C147.213 120.282 147.101 120.416 146.958 120.51C146.814 120.604 146.647 120.654 146.475 120.653Z" fill="#35322E"/>
<path d="M166.398 116.237C166.278 116.271 166.15 116.271 166.03 116.237C165.927 116.192 165.834 116.127 165.757 116.046C165.68 115.964 165.62 115.867 165.581 115.762C165.542 115.657 165.525 115.544 165.531 115.432C165.537 115.32 165.566 115.21 165.616 115.11L176.268 92.014C176.314 91.9101 176.382 91.8167 176.466 91.7393C176.549 91.6619 176.648 91.6021 176.755 91.5635C176.862 91.5249 176.976 91.5082 177.09 91.5145C177.204 91.5207 177.315 91.5498 177.418 91.6C177.521 91.6445 177.614 91.7096 177.691 91.7912C177.768 91.8728 177.828 91.9692 177.867 92.0747C177.906 92.1801 177.922 92.2923 177.916 92.4045C177.91 92.5167 177.882 92.6265 177.832 92.7272L167.272 115.731C167.197 115.895 167.072 116.032 166.916 116.123C166.759 116.213 166.578 116.253 166.398 116.237Z" fill="#35322E"/>
<path d="M113.049 176.23C112.943 176.252 112.833 176.252 112.727 176.23C112.518 176.138 112.352 175.971 112.262 175.761C112.173 175.552 112.166 175.317 112.244 175.102C114.28 169.989 117.552 165.46 121.768 161.921C126.123 158.257 131.355 155.784 136.951 154.744C137.158 154.7 137.374 154.735 137.557 154.841C137.74 154.947 137.877 155.118 137.941 155.319L140.379 162.635C140.415 162.742 140.429 162.855 140.421 162.968C140.412 163.08 140.381 163.19 140.33 163.291C140.278 163.392 140.208 163.481 140.121 163.554C140.035 163.627 139.935 163.682 139.827 163.716C139.72 163.751 139.607 163.766 139.494 163.757C139.381 163.749 139.271 163.718 139.171 163.666C139.07 163.615 138.981 163.544 138.908 163.458C138.835 163.371 138.78 163.271 138.746 163.164L136.445 156.585C131.374 157.654 126.648 159.964 122.689 163.308C118.731 166.652 115.663 170.926 113.762 175.747C113.695 175.882 113.594 175.997 113.469 176.082C113.344 176.167 113.199 176.218 113.049 176.23Z" fill="#35322E"/>
</svg>
